<svg xmlns="http://www.w3.org/2000/svg" width="484.478" height="352.996" viewBox="0 0 484.478 352.996"><defs><style>.a{fill:#3a6fb6;}.b{fill:#223a74;}.c{fill:#1e4382;}.d{fill:#2159a8;}.e{fill:#50c0db;}.f{fill:#7998be;}.g{fill:#023577;}.h{fill:#2394af;}</style></defs><g transform="translate(0 -302.871)"><rect class="a" width="24.758" height="124.282" transform="translate(450.344 531.585)"/><rect class="b" width="10.68" height="124.282" transform="translate(448.888 531.585)"/><rect class="c" width="291.284" height="119.912" transform="translate(162.942 532.557)"/><rect class="a" width="100.493" height="29.128" transform="translate(344.994 540.325)"/><rect class="a" width="100.493" height="29.128" transform="translate(344.994 575.279)"/><rect class="a" width="100.493" height="29.128" transform="translate(344.994 610.233)"/><rect class="a" width="67.498" height="99.037" transform="translate(264.389 540.325)"/><rect class="a" width="67.497" height="99.037" transform="translate(192.07 540.325)"/><path class="b" d="M254.21,558.774a4.37,4.37,0,1,1-4.37-4.37,4.371,4.371,0,0,1,4.37,4.37Z"/><path class="b" d="M279.94,558.774a4.37,4.37,0,1,1-4.37-4.37,4.371,4.371,0,0,1,4.37,4.37Z"/><path class="b" d="M399.61,554.892a4.37,4.37,0,1,1-4.37-4.37,4.371,4.371,0,0,1,4.37,4.37Z"/><path class="b" d="M399.61,590.815a4.37,4.37,0,1,1-4.37-4.37,4.371,4.371,0,0,1,4.37,4.37Z"/><path class="b" d="M399.61,626.254a4.37,4.37,0,1,1-4.37-4.37,4.371,4.371,0,0,1,4.37,4.37v0Z"/><rect class="a" width="51.46" height="23.303" rx="6.732" transform="translate(388.595 446.871)"/><rect class="a" width="24.517" height="63.112" transform="translate(384.226 446.871)"/><path class="d" d="M445.153,519.207v-3.641a8.739,8.739,0,0,0-8.739-8.738h-49.76a8.739,8.739,0,0,0-8.739,8.738v3.641Z"/><rect class="d" width="51.46" height="23.303" rx="6.732" transform="translate(367.477 446.871)"/><rect class="b" width="18.448" height="4.612" transform="translate(414.082 470.174)"/><rect class="e" width="20.745" height="27.384" transform="translate(412.659 478.766)"/><path class="e" d="M418.61,483.885a7.477,7.477,0,0,1,7.468,7.467v2.764a7.478,7.478,0,0,1-7.468,7.466h-4.98a7.476,7.476,0,0,1-7.468-7.468v-2.768a7.476,7.476,0,0,1,7.468-7.468h4.98m0-2.49h-4.98a9.958,9.958,0,0,0-9.958,9.958v2.77a9.958,9.958,0,0,0,9.958,9.958h4.98a9.959,9.959,0,0,0,9.958-9.957h0v-2.768a9.958,9.958,0,0,0-9.958-9.958h0Z"/><rect class="d" width="24.517" height="63.112" transform="translate(363.107 446.871)"/><path class="b" d="M424.035,519.207v-3.641a8.739,8.739,0,0,0-8.739-8.738H365.535a8.739,8.739,0,0,0-8.739,8.738v3.641Z"/><rect class="b" width="3.641" height="2.549" transform="translate(420.515 473.694)"/><rect class="e" width="10.923" height="11.651" transform="translate(369.54 452.212)"/><path class="b" d="M394.663,464.956a1.457,1.457,0,0,1-1.457,1.455h0a1.455,1.455,0,0,1-1.456-1.455V451.484a1.456,1.456,0,0,1,1.456-1.456h0a1.456,1.456,0,0,1,1.457,1.455h0Z"/><path class="b" d="M399.761,464.956a1.457,1.457,0,0,1-1.457,1.455h0a1.455,1.455,0,0,1-1.456-1.455V451.484a1.456,1.456,0,0,1,1.456-1.456h0a1.456,1.456,0,0,1,1.457,1.455h0Z"/><rect class="b" width="20.745" height="27.384" transform="translate(255.245 486.412)"/><path class="b" d="M261.191,491.225A7.783,7.783,0,0,1,268.966,499v2.768a7.783,7.783,0,0,1-7.775,7.773h-4.978a7.782,7.782,0,0,1-7.775-7.773V499a7.781,7.781,0,0,1,7.775-7.772h4.978m0-2.185h-4.978A9.958,9.958,0,0,0,246.254,499v2.768a9.957,9.957,0,0,0,9.958,9.957h4.979a9.956,9.956,0,0,0,9.959-9.955v0h0V499a9.959,9.959,0,0,0-9.958-9.957Z"/><rect class="a" width="20.745" height="27.384" transform="translate(280.733 487.14)"/><path class="a" d="M286.679,492.681a7.054,7.054,0,0,1,7.046,7.044v2.768a7.055,7.055,0,0,1-7.046,7.045H281.7a7.053,7.053,0,0,1-7.045-7.045v-2.768a7.053,7.053,0,0,1,7.045-7.044h4.98m0-2.913H281.7a9.957,9.957,0,0,0-9.958,9.957v2.768a9.959,9.959,0,0,0,9.958,9.958h4.98a9.955,9.955,0,0,0,9.957-9.953v0h0v-2.768a9.956,9.956,0,0,0-9.953-9.957h-.005Z"/><path class="e" d="M211,461.437a5.831,5.831,0,0,1,5.826,5.825v17.6A5.833,5.833,0,0,1,211,490.688h-5.947a5.834,5.834,0,0,1-5.826-5.826v-17.6a5.832,5.832,0,0,1,5.826-5.825H211m0-2.913h-5.947a8.737,8.737,0,0,0-8.739,8.737h0v17.6a8.739,8.739,0,0,0,8.739,8.739H211a8.74,8.74,0,0,0,8.739-8.739v-17.6a8.738,8.738,0,0,0-8.737-8.739h0Z"/><rect class="a" width="30.949" height="44.785" rx="6.732" transform="translate(202.811 470.783)"/><rect class="a" width="17.477" height="19.298" transform="translate(209.547 459.131)"/><path class="e" d="M206.113,458.524a5.462,5.462,0,0,0,5.437,4.975h13.472a5.462,5.462,0,0,0,5.437-4.976Z"/><path class="f" d="M217.439,456.338"/><path class="c" d="M187.809,514.11a5.4,5.4,0,0,0,5.394,5.155H309.47a5.4,5.4,0,0,0,5.394-5.155Z"/><rect class="a" width="321.045" height="13.592" transform="translate(163.433 519.748)"/><rect class="g" width="120.431" height="251.809" transform="translate(0 400.197)"/><rect class="a" width="83.207" height="251.809" transform="translate(43.793 400.197)"/><rect class="a" width="70.799" height="64.96" transform="translate(50.727 406.766)"/><rect class="g" width="70.799" height="2.919" transform="translate(50.727 468.807)"/><rect class="g" width="2.92" height="64.96" transform="translate(48.537 406.766)"/><rect class="c" width="27.736" height="13.137" transform="translate(74.813 418.08)"/><path class="d" d="M104.013,454.573a2.191,2.191,0,0,1-2.191,2.191H74.814a2.191,2.191,0,0,1-2.191-2.191h0a2.191,2.191,0,0,1,2.191-2.191h27.008a2.191,2.191,0,0,1,2.191,2.191Z"/><rect class="a" width="70.799" height="64.96" transform="translate(50.727 478.578)"/><rect class="g" width="70.799" height="2.919" transform="translate(50.727 540.619)"/><rect class="g" width="2.92" height="64.96" transform="translate(48.537 478.578)"/><rect class="c" width="27.736" height="13.137" transform="translate(74.813 489.892)"/><path class="d" d="M104.013,526.386a2.191,2.191,0,0,1-2.191,2.191H74.814a2.191,2.191,0,0,1-2.191-2.191h0a2.191,2.191,0,0,1,2.191-2.191h27.008a2.191,2.191,0,0,1,2.191,2.191Z"/><rect class="a" width="70.799" height="64.96" transform="translate(50.727 550.606)"/><rect class="g" width="70.799" height="2.919" transform="translate(50.727 612.647)"/><rect class="g" width="2.92" height="64.96" transform="translate(48.537 550.606)"/><rect class="c" width="27.736" height="13.137" transform="translate(74.813 561.92)"/><path class="d" d="M104.013,598.415a2.192,2.192,0,0,1-2.191,2.191H74.814a2.192,2.192,0,0,1-2.191-2.191h0a2.192,2.192,0,0,1,2.191-2.192h27.008a2.192,2.192,0,0,1,2.191,2.192Z"/><path class="h" d="M48.172,357.5H94.155v42.7H48.172Z"/><rect class="e" width="22.991" height="42.699" transform="translate(78.827 357.499)"/><rect class="h" width="45.983" height="42.699" transform="translate(14.233 357.499)"/><rect class="e" width="22.992" height="42.699" transform="translate(44.888 357.499)"/><g transform="translate(82 -42)"><circle class="g" cx="24.038" cy="24.038" r="24.038" transform="translate(189 344.871)"/><circle class="c" cx="24.038" cy="24.038" r="24.038" transform="translate(193.452 344.871)"/><circle class="a" cx="20.477" cy="20.477" r="20.477" transform="translate(197.235 348.21)"/><path class="g" d="M219.155,371.612a1.555,1.555,0,0,1-1.33-.744l-9.013-14.722a1.558,1.558,0,1,1,2.616-1.693l.031.05.01.016,9.009,14.721a1.558,1.558,0,0,1-1.327,2.371Z"/><path class="g" d="M219.152,371.616a1.558,1.558,0,0,1-1.555-1.478l-.551-10.715a1.559,1.559,0,0,1,3.113-.16l.551,10.715a1.56,1.56,0,0,1-1.476,1.637Z"/></g></g></svg>