<svg xmlns="http://www.w3.org/2000/svg" xmlnsXlink="http://www.w3.org/1999/xlink" width="197.563" height="34.715" viewBox="0 0 197.563 34.715"><defs><style>.a{fill:none;}.b{clip-path:url(#a);}.c,.k{fill:#f68b51;}.d,.f{fill:#4580c2;}.d,.e,.g,.h,.i,.k,.l,.m,.n{fill-rule:evenodd;}.e{fill:#2e578c;}.f{stroke:rgba(0,0,0,0);}.g{fill:#fbce3b;}.h{fill:#eca93e;}.i{fill:#edb248;}.j{fill:#f1f1f2;}.l{fill:#c56428;}.m{fill:#f26a23;}.n{fill:#ebeef2;}</style><clipPath id="a"><rect class="a" width="197.563" height="34.715"/></clipPath></defs><g class="b"><g transform="translate(31.69 5.243)"><path class="c" d="M207.728,49.152c.245,1.5,1.609,2.064,3.113,2.064,1.469,0,2.642-.631,2.677-1.4.053-1.162-.859-1.852-2.153-2.1-.892-.172-3.568-.7-3.568-.7-3.253-.6-5.107-1.536-5.107-4.3,0-3.6,3.113-5.946,7.555-5.946,4.372,0,7.275,1.994,7.975,5.037l-5.107,1.014a2.725,2.725,0,0,0-2.938-2.064c-1.5,0-2.257.632-2.4,1.364-.092.481.14.882,1.733,1.224,1.03.222,4.128.84,4.128.84,3.323.7,4.862,2.693,4.862,5.282,0,3.883-3.358,5.911-7.975,5.911-4.127,0-7.66-1.5-8.254-5.107Z" transform="translate(-159.591 -30.978)"/><path class="c" d="M305.631,32.61a17.068,17.068,0,0,1,.14,2.143c0,7.132-5.094,12.262-12.191,12.262a12.3,12.3,0,1,1-.105-24.593c5.235,0,9.838,2.459,11.489,7.062L299.377,31.1a6.062,6.062,0,0,0-5.9-3.373,6.74,6.74,0,0,0-6.746,6.991,6.828,6.828,0,0,0,6.922,7.027,6.173,6.173,0,0,0,6.218-4.216h-7.2V32.61Z" transform="translate(-206.478 -22.421)"/><g transform="translate(0 0.127)"><path class="c" d="M118.005,46.275h-5.762v-9.31h-9.908v9.31h-5.8V22.735h5.8V31.9h9.908v-9.17h5.762Z" transform="translate(-96.538 -22.735)"/><path class="c" d="M172.712,45.5c0,5.586-4.427,9.31-9.662,9.31-5.34,0-9.767-3.724-9.767-9.31,0-5.551,4.427-9.275,9.767-9.275C168.285,36.226,172.712,39.95,172.712,45.5Zm-5.411,0a4.311,4.311,0,1,0-4.251,4.567A4.388,4.388,0,0,0,167.3,45.5Z" transform="translate(-130.377 -30.78)"/><path class="c" d="M259.136,45.5a9.58,9.58,0,0,1-4.814,1.3c-4.392,0-7.027-2.389-7.027-7.027V33.1h-3.2V28.638h3.2V23.946l5.621-1.211v5.9h5.2V33.1h-5.2v6.113c0,1.827.878,2.565,2.354,2.565a5.74,5.74,0,0,0,2.565-.7Z" transform="translate(-184.534 -22.735)"/><path class="c" d="M361.088,43.043V54.216h-5.411v-1.3a7.793,7.793,0,0,1-5.27,1.827c-3.935,0-6.57-2.284-6.57-5.762,0-3.443,2.635-5.692,7.343-5.692h4.5v-.352a2.351,2.351,0,0,0-2.494-2.459c-1.687,0-2.671.667-2.952,2.213L344.926,41.6c.773-3.408,3.865-5.551,8.081-5.551C357.961,36.052,361.088,38.546,361.088,43.043Zm-5.411,4.216v-.387h-3.865c-1.405,0-2.283.738-2.283,1.827,0,1.124.983,1.827,2.459,1.827A3.455,3.455,0,0,0,355.677,47.26Z" transform="translate(-244.012 -30.676)"/><path class="c" d="M403.694,45.5a9.579,9.579,0,0,1-4.813,1.3c-4.392,0-7.026-2.389-7.026-7.027V33.1h-3.2V28.638h3.2V23.946l5.621-1.211v5.9h5.2V33.1h-5.2v6.113c0,1.827.878,2.565,2.354,2.565a5.742,5.742,0,0,0,2.565-.7Z" transform="translate(-270.74 -22.735)"/><path class="c" d="M443.16,45.5c0,5.586-4.427,9.31-9.662,9.31-5.34,0-9.767-3.724-9.767-9.31,0-5.551,4.427-9.275,9.767-9.275C438.733,36.226,443.16,39.95,443.16,45.5Zm-5.411,0a4.311,4.311,0,1,0-4.251,4.567A4.388,4.388,0,0,0,437.749,45.5Z" transform="translate(-291.656 -30.78)"/><path class="c" d="M488.3,36.888l-.246,5.621H487.04c-3.935,0-6.078,2.038-6.078,6.606v5.516H475.34V38.205l5.621-1.211v3.373a6.812,6.812,0,0,1,6.078-3.619A4.819,4.819,0,0,1,488.3,36.888Z" transform="translate(-322.432 -31.092)"/></g></g><g transform="translate(-3664.466 570.405)"><g transform="translate(3680.478 -544.896)"><path class="d" d="M3806.736-350.736c-.987.955-1.974,2.259-2.962,3.214.474,2.491-.453,3.588.664,4.481.4.322,2.857,1.007,4.232.213.031-1.293-.677-1.677-1.431-2.162-.762-1.639-.489-4.13-.5-5.745" transform="translate(-3803.775 350.736)"/><path class="e" d="M3823.568-292a2.249,2.249,0,0,0-1.391-1.638,1.82,1.82,0,0,1,.867,1.641C3823.219-291.989,3823.395-291.989,3823.568-292Z" transform="translate(-3820.041 300.268)"/><path class="e" d="M3833.771-294.069a2.245,2.245,0,0,0-1.384-1.611,1.793,1.793,0,0,1,.85,1.788A2.759,2.759,0,0,0,3833.771-294.069Z" transform="translate(-3829.065 302.073)"/></g><g transform="translate(3682.011 -558.376)"><path class="d" d="M3817.25-466.241c-.508.74-.736,2.3,3.32,4.577a34.886,34.886,0,0,1-2.243,3.482,2.454,2.454,0,0,0-.341,2.693,6.434,6.434,0,0,0,.933,1.041,3.934,3.934,0,0,0,1.92-.072,2.6,2.6,0,0,0,.386-2.881s3.419-3.581,3.2-4.658S3818.865-468.593,3817.25-466.241Z" transform="translate(-3816.976 466.824)"/><path class="e" d="M3840.373-385.681s-1.385,1.142-1.734,1.34a4.059,4.059,0,0,0,.806-.348s.615.751.164,1.386a1.1,1.1,0,0,0,.273-1.564,6.522,6.522,0,0,0,.508-.74Z" transform="translate(-3836.124 395.104)"/></g><g transform="translate(3664.281 -566.527)"><g transform="translate(2.175 15.223)"><path class="d" d="M3727.375-396.8a1.476,1.476,0,0,1-.236.745c-.233.371-.368.327.214.645a4.382,4.382,0,0,0,1.386.43c.821.134.629.042.267-.725a6.418,6.418,0,0,0-.56-.987c-.794-1.112-1.039-1.037-1.072-.108" transform="translate(-3721.839 398.493)"/><path class="d" d="M3704.919-404.621c-.3.556.159.643.749.849a3.016,3.016,0,0,0,.677.151c.664.072.491-.024.2-.561a9.861,9.861,0,0,0-.587-.955c-1.159-1.667-.605-.3-1.041.516" transform="translate(-3702.293 405.926)"/><path class="d" d="M3683.128-403.954a3.118,3.118,0,0,1-.014.383c-.044.462-.1.384.478.435a3.332,3.332,0,0,0,.764-.008c.73-.109.464-.364.083-.789a3.23,3.23,0,0,0-.431-.4c-1.443-1.111-.9-.33-.88.379" transform="translate(-3683.012 405.009)"/></g><path class="f" d="M10.406,24.4a13.154,13.154,0,0,1-2.582-2.215c-.552-.644-1.242-1.058-1.839-1.662A8.606,8.606,0,0,0,3.33,18.6a2.591,2.591,0,0,0-2.279.38c-.266.122-.629.357-.924.122a.3.3,0,0,1-.1-.37,2.71,2.71,0,0,1,.681-.968A5.434,5.434,0,0,1,6.794,17.3a6.08,6.08,0,0,0,2.354.885,2.244,2.244,0,0,0,1.653-.47,2.176,2.176,0,0,0,.678-1.264,3.894,3.894,0,0,0-.141-2.031c-.312-.938-.874-1.79-1.236-2.716q-.222-.566-.405-1.15c-.133-.077-.2-.03-.421-.384A2.928,2.928,0,0,1,9.21,8.5q-.054-.345-.088-.69c-.585-.4-1.868-.252-2.013-.96S8.9,4.713,9.371,4.372c.016-.058.032-.116.049-.174-.485-.8-1.53-.745-1.566-1.393-.036-.674,4.1-2.8,4.1-2.8a19.782,19.782,0,0,0-.734,2.062,33.321,33.321,0,0,0,4.84,3.2,11,11,0,0,1,3,2.643c1,1.344.427,2.928.656,4.577.078.561.116,1.128.139,1.694a21.735,21.735,0,0,1-.09,3.09c-.252,2.458-.38,4.458-2.111,6.3a5.566,5.566,0,0,1-3.992,2.064A5.513,5.513,0,0,1,10.406,24.4Z" transform="translate(0 0)"/><g transform="translate(3.671 5.77)"><path class="g" d="M3695.9-474.352a15.953,15.953,0,0,1,4.3,3.948c1.858,2.206,6.5,5.458,10.334.348,3.609-4.812,1.91-11.558,1.7-12.326l-.024-.078c-.122-.156-3.34-4.263-6.288-4.868-.786.683-.939,1.885.108,3.958,1.761,3.487,3.169,8.572.038,11.7a4.245,4.245,0,0,1-1.667,1.052c-2.226.734-3.4-.616-4.8-1.918A6.727,6.727,0,0,0,3695.9-474.352Z" transform="translate(-3695.897 487.326)"/><path class="h" d="M3797.3-355.545a7.43,7.43,0,0,1-3.719-1.521,5.15,5.15,0,0,0,3.288,2.144C3797.021-355.126,3797.164-355.334,3797.3-355.545Z" transform="translate(-3782.238 372.193)"/><path class="h" d="M3771.677-341.306a8.63,8.63,0,0,0,2.244,2.912,4.866,4.866,0,0,0,.884-.3A7.168,7.168,0,0,1,3771.677-341.306Z" transform="translate(-3762.878 358.263)"/><path class="h" d="M3730.926-348.383q.115.134.229.269l.106.124a1.542,1.542,0,0,1,.1-.98A5.189,5.189,0,0,0,3730.926-348.383Z" transform="translate(-3726.859 365.037)"/><path class="h" d="M3744.236-338.714q.241.2.5.384a2.339,2.339,0,0,1,.018-1.465A5.334,5.334,0,0,0,3744.236-338.714Z" transform="translate(-3738.623 356.927)"/><path class="i" d="M3718.119-360.9q.179.181.357.368a3.138,3.138,0,0,1,.083-.772A3.768,3.768,0,0,0,3718.119-360.9Z" transform="translate(-3715.538 375.938)"/><path class="h" d="M3802.17-386.153a7.486,7.486,0,0,1,4.323-.005q.055-.3.1-.6A5.329,5.329,0,0,0,3802.17-386.153Z" transform="translate(-3789.83 398.607)"/><path class="h" d="M3805.828-423.531c-.021-.243-.045-.476-.071-.7h0a6.626,6.626,0,0,0-4.546,1.385A7.326,7.326,0,0,1,3805.828-423.531Z" transform="translate(-3788.982 431.559)"/><path class="h" d="M3796.967-455.355c-.117-.133-.248-.279-.391-.433-3.189,0-4.05,1.481-4.05,1.481A7.052,7.052,0,0,1,3796.967-455.355Z" transform="translate(-3781.307 459.45)"/><path class="h" d="M3784.145-471.2a18.889,18.889,0,0,0-.352-2.142c-.077-.046-.154-.093-.228-.142-1.019-.664-5.5-3.382-6.811-4.161a2.637,2.637,0,0,0-.014.6C3778.133-475.13,3781.223-471.866,3784.145-471.2Z" transform="translate(-3767.343 478.772)"/></g></g><g transform="translate(3672.278 -546.295)"><path class="d" d="M3735.475-361.889a2.029,2.029,0,0,1,1.848-.887c2.051.268,1.4,2.694.91,4.122a11.64,11.64,0,0,0-.581,3.185c0,1.41.539,1.835-.118,2.385a5.574,5.574,0,0,1-3.58,1c-1.138-.258-1.169-2.6.645-3.2a7.152,7.152,0,0,0,.442-3.378c-.026-.79-.1-2.448.433-3.228" transform="translate(-3733.158 362.788)"/><path class="e" d="M3749.341-285.921c.162-.023.322-.053.479-.089a2.089,2.089,0,0,1,.566-1.9A2.253,2.253,0,0,0,3749.341-285.921Z" transform="translate(-3747.462 296.602)"/><path class="e" d="M3736.194-286.743a2.391,2.391,0,0,1,.55-2.112,2.168,2.168,0,0,0-1.031,1.815A.925.925,0,0,0,3736.194-286.743Z" transform="translate(-3735.416 297.441)"/></g><g transform="translate(3670.069 -559.055)"><path class="e" d="M3748.741-400.123s-.237,1.357.683,1.812a1.852,1.852,0,0,0,2.213-.178c.66-.792,1.639-2.428-1.011-4.022-1.637-.984-1.721,2.36-1.721,2.36Z" transform="translate(-3744.698 410.819)"/><path class="e" d="M3750.9-450.289c.346.749.657,1.328.672,1.38,0,0,2.14-2.65,1.741-3.089C3752.869-452.483,3751.231-450.876,3750.9-450.289Z" transform="translate(-3746.628 454.478)"/><path class="d" d="M3720.482-472.362c2.294,2.213-2.472,5.15-2.472,5.15a8.4,8.4,0,0,1,1.666,2.267c.492.82.683.683,1.284,1.366s-1.112,1.7-1.112,1.7-5.735-3.1-5.717-5.084a14.856,14.856,0,0,1,2.677-3.825C3717.484-471.479,3719.385-473.42,3720.482-472.362Z" transform="translate(-3714.131 472.671)"/><path class="d" d="M3749.121-396.385s-.428,2.112.833,2.727a2.929,2.929,0,0,0,1.542-.305s1.294-1.985.329-3.014S3749.121-396.385,3749.121-396.385Z" transform="translate(-3744.996 406.069)"/><path class="e" d="M3749.316-387.982s1.659.889,1.947.971a1.553,1.553,0,0,1-.848-.127s-.427.808.068,1.314c0,0-.762-.136-.489-1.406l-.692-.715Z" transform="translate(-3745.219 397.817)"/></g><g transform="translate(3674.45 -570.405)"><path class="d" d="M3762.232-565.228s.862-5.088,2.975-5.175c1.388-.057,2.087,1.713,2.087,1.713a4.435,4.435,0,0,1,2.4.712.933.933,0,0,1,1.05-.475c.662.225,1.375,1.7,1.113,4.125a2.105,2.105,0,0,1,1.512,1.037,1.119,1.119,0,0,1-.725.463c-.437.037-2.325-.65-2.837-.2a1.631,1.631,0,0,0-.675,1.612,5,5,0,0,1-3.012-1.388C3765.182-563.991,3764.394-566.291,3762.232-565.228Z" transform="translate(-3761.028 570.405)"/><path class="j" d="M3824.081-539.3s.519-1.707,1.516-2.185a18.391,18.391,0,0,0,.269,2.468A14.942,14.942,0,0,0,3824.081-539.3Z" transform="translate(-3815.696 544.843)"/><path class="j" d="M3779.3-552.816s1.284.615,2.13,3.278a18.4,18.4,0,0,0-2.909-.26A6.966,6.966,0,0,0,3779.3-552.816Z" transform="translate(-3775.425 554.859)"/><path class="e" d="M3785.5-542.647c.313,0,.567.35.567.781s-.254.781-.567.781-.567-.35-.567-.781.254-.781.567-.781" transform="translate(-3781.092 545.87)"/><path class="e" d="M3827.655-533.772a.534.534,0,0,0,.446-.591.534.534,0,0,0-.446-.591.347.347,0,0,0-.137.031,1.581,1.581,0,0,0-.306.517c0,.014,0,.028,0,.043A.534.534,0,0,0,3827.655-533.772Z" transform="translate(-3818.46 539.071)"/><path class="g" d="M3762.594-523.132a15.087,15.087,0,0,0,2.213-.178,1.927,1.927,0,0,0,1.8-2.172c-.092-1.319-1.834-1.9-3.111-.971-1.045-.232-2.206-.929-3.251.116a1.2,1.2,0,0,0-.316,1.451s-2.172-.351-2.923-1.457-1.721-2.586-2.786-2.691a1.807,1.807,0,0,0-2.049.929c-.546,1.065-.819,2.991,3.223,6.038s5.827,3.867,6.706,3.866c1.125,0,1.193-.42,2.486-.6.66-.093,1.161-1.216.437-2.186A13.1,13.1,0,0,0,3762.594-523.132Z" transform="translate(-3751.864 533.862)"/><path class="k" d="M3766.756-518.13s-.874-1.011-1.721-.191c-.7.679-.178,1.817-.178,1.817s.051-.982.506-.915c0,0,.382,2.445,3.96,4.89s4.576,2.226,5.354,2.022,1.666-.6,1.366-1.229a13.572,13.572,0,0,0-2.13-2.186,2.611,2.611,0,0,1-2.376.068,13.066,13.066,0,0,1-5.436-4.07s.072-.457.6-.2" transform="translate(-3763.183 524.653)"/><g transform="translate(7.121 9.723)"><path class="l" d="M3813.194-486.677l.077.038Z" transform="translate(-3813.194 486.677)"/></g><path class="m" d="M3786.42-490a2.939,2.939,0,0,1-2.148-.053,12.085,12.085,0,0,1-2.858-1.581,6.048,6.048,0,0,0-2.335.07,11.536,11.536,0,0,0,2.981,2.836c3.578,2.445,4.575,2.226,5.354,2.022a4.4,4.4,0,0,0,.792-.282A4.218,4.218,0,0,0,3786.42-490Z" transform="translate(-3775.918 500.854)"/><path class="h" d="M3831.922-499.578c.363-.117.643.373.164.587-.067.181.041.378.335.448a.576.576,0,0,1-.5-1.035" transform="translate(-3822.366 507.818)"/><path class="h" d="M3866.4-500.85c-.3-.1-.531.308-.135.484.055.149-.034.312-.277.369a.475.475,0,0,0,.412-.854" transform="translate(-3852.737 508.94)"/><path class="n" d="M3830.457-475.66c.583.171.992-1.114,1.1-1.511a2.547,2.547,0,0,1-1.466.154c.051.15.1.3.131.415C3830.32-476.247,3830.224-475.728,3830.457-475.66Z" transform="translate(-3821.01 487.998)"/><path class="n" d="M3860.715-482.459a2.894,2.894,0,0,1-.343.063c.058.111.112.218.152.3.152.335.141.863.381.893.592.073.791-1.209.841-1.645A3.522,3.522,0,0,1,3860.715-482.459Z" transform="translate(-3847.773 493.011)"/></g></g><g transform="translate(-3664.156 570.405)"><g transform="translate(3680.422 -544.986)"><path class="d" d="M3806.726-350.736c-.984.952-1.968,2.251-2.951,3.2.472,2.482-.452,3.575.662,4.465.4.321,2.848,1,4.218.212.031-1.288-.674-1.671-1.426-2.155-.76-1.633-.487-4.116-.5-5.725" transform="translate(-3803.774 350.736)"/><path class="e" d="M3823.563-292a2.242,2.242,0,0,0-1.386-1.632,1.814,1.814,0,0,1,.864,1.635C3823.215-291.995,3823.39-291.995,3823.563-292Z" transform="translate(-3820.048 300.244)"/><path class="e" d="M3833.766-294.075a2.237,2.237,0,0,0-1.379-1.6,1.787,1.787,0,0,1,.847,1.781A2.745,2.745,0,0,0,3833.766-294.075Z" transform="translate(-3829.077 302.051)"/></g><g transform="translate(3681.95 -558.419)"><path class="d" d="M3817.248-466.243c-.506.737-.733,2.29,3.309,4.561a34.822,34.822,0,0,1-2.236,3.47,2.446,2.446,0,0,0-.34,2.683,6.4,6.4,0,0,0,.93,1.037,3.921,3.921,0,0,0,1.914-.072,2.589,2.589,0,0,0,.385-2.871s3.407-3.568,3.193-4.641S3818.858-468.586,3817.248-466.243Z" transform="translate(-3816.975 466.824)"/><path class="e" d="M3840.367-385.681s-1.381,1.138-1.728,1.335a4.043,4.043,0,0,0,.8-.347s.613.749.164,1.382a1.1,1.1,0,0,0,.272-1.558,6.56,6.56,0,0,0,.506-.737Z" transform="translate(-3836.132 395.07)"/></g><g transform="translate(3664.281 -566.541)"><g transform="translate(2.168 15.169)"><path class="d" d="M3727.373-396.807a1.471,1.471,0,0,1-.235.742c-.232.37-.367.326.214.643a4.368,4.368,0,0,0,1.381.429c.818.134.627.042.266-.723a6.388,6.388,0,0,0-.558-.984c-.791-1.109-1.035-1.033-1.068-.108" transform="translate(-3721.856 398.489)"/><path class="d" d="M3704.919-404.626c-.3.554.158.641.746.846a3,3,0,0,0,.675.151c.661.071.49-.024.2-.559a9.79,9.79,0,0,0-.585-.952c-1.155-1.661-.6-.3-1.037.514" transform="translate(-3702.301 405.925)"/><path class="d" d="M3683.128-403.957a3.1,3.1,0,0,1-.014.381c-.044.461-.1.383.475.434a3.316,3.316,0,0,0,.761-.008c.728-.109.463-.363.083-.786a3.2,3.2,0,0,0-.43-.4c-1.438-1.108-.9-.329-.876.377" transform="translate(-3683.012 405.008)"/></g><path class="f" d="M10.37,24.312A13.107,13.107,0,0,1,7.8,22.105c-.55-.642-1.238-1.054-1.832-1.656a8.576,8.576,0,0,0-2.645-1.91,2.583,2.583,0,0,0-2.272.379c-.265.121-.627.355-.92.122a.3.3,0,0,1-.1-.368A2.7,2.7,0,0,1,.7,17.706a5.416,5.416,0,0,1,6.067-.463,6.059,6.059,0,0,0,2.346.882,2.236,2.236,0,0,0,1.647-.468,2.169,2.169,0,0,0,.676-1.26,3.88,3.88,0,0,0-.141-2.024c-.311-.935-.871-1.784-1.232-2.706-.147-.376-.283-.759-.4-1.146-.133-.077-.2-.03-.42-.383a2.918,2.918,0,0,1-.066-1.669q-.054-.344-.088-.688c-.583-.4-1.862-.251-2.006-.957S8.865,4.7,9.339,4.357c.016-.058.032-.116.049-.174-.483-.8-1.525-.742-1.56-1.388C7.792,2.123,11.912,0,11.912,0a19.711,19.711,0,0,0-.731,2.055A33.2,33.2,0,0,0,16,5.243a10.957,10.957,0,0,1,2.991,2.634c1,1.34.426,2.918.654,4.561.078.559.116,1.124.138,1.688A21.652,21.652,0,0,1,19.7,17.2c-.251,2.45-.378,4.442-2.1,6.275a5.547,5.547,0,0,1-3.979,2.057A5.5,5.5,0,0,1,10.37,24.312Z"/><g transform="translate(3.659 5.75)"><path class="g" d="M3695.9-474.4a15.9,15.9,0,0,1,4.281,3.934c1.851,2.2,6.48,5.439,10.3.347,3.6-4.8,1.9-11.517,1.695-12.282l-.024-.078c-.121-.156-3.329-4.248-6.266-4.85-.783.681-.936,1.878.108,3.944,1.755,3.475,3.158,8.542.038,11.654a4.231,4.231,0,0,1-1.662,1.048c-2.218.732-3.393-.614-4.78-1.911A6.7,6.7,0,0,0,3695.9-474.4Z" transform="translate(-3695.897 487.326)"/><path class="h" d="M3797.286-355.55a7.4,7.4,0,0,1-3.706-1.516,5.132,5.132,0,0,0,3.277,2.137C3797.01-355.133,3797.152-355.34,3797.286-355.55Z" transform="translate(-3782.277 372.139)"/><path class="h" d="M3771.677-341.306a8.6,8.6,0,0,0,2.236,2.9,4.845,4.845,0,0,0,.88-.3A7.146,7.146,0,0,1,3771.677-341.306Z" transform="translate(-3762.908 358.203)"/><path class="h" d="M3730.926-348.385c.076.089.153.178.228.268q.051.061.106.123a1.537,1.537,0,0,1,.1-.976A5.166,5.166,0,0,0,3730.926-348.385Z" transform="translate(-3726.873 364.98)"/><path class="h" d="M3744.236-338.718q.24.2.5.383a2.332,2.332,0,0,1,.018-1.46A5.327,5.327,0,0,0,3744.236-338.718Z" transform="translate(-3738.642 356.867)"/><path class="i" d="M3718.119-360.9q.178.18.356.367a3.127,3.127,0,0,1,.082-.769A3.752,3.752,0,0,0,3718.119-360.9Z" transform="translate(-3715.547 375.886)"/><path class="h" d="M3802.17-386.156a7.461,7.461,0,0,1,4.308-.005q.055-.3.1-.6A5.31,5.31,0,0,0,3802.17-386.156Z" transform="translate(-3789.872 398.566)"/><path class="h" d="M3805.812-423.534c-.02-.242-.044-.474-.071-.7h0a6.6,6.6,0,0,0-4.531,1.38A7.3,7.3,0,0,1,3805.812-423.534Z" transform="translate(-3789.024 431.533)"/><path class="h" d="M3796.952-455.356c-.117-.133-.247-.278-.389-.432-3.178,0-4.036,1.476-4.036,1.476A7.03,7.03,0,0,1,3796.952-455.356Z" transform="translate(-3781.345 459.437)"/><path class="h" d="M3784.119-471.226a18.8,18.8,0,0,0-.351-2.134c-.077-.046-.153-.093-.227-.141-1.016-.662-5.478-3.37-6.788-4.146a2.647,2.647,0,0,0-.014.6C3778.128-475.139,3781.208-471.886,3784.119-471.226Z" transform="translate(-3767.375 478.768)"/></g></g><g transform="translate(3672.251 -546.38)"><path class="d" d="M3735.467-361.892a2.022,2.022,0,0,1,1.842-.884c2.043.267,1.4,2.684.907,4.108a11.6,11.6,0,0,0-.579,3.174c0,1.405.537,1.828-.117,2.377a5.554,5.554,0,0,1-3.567.995c-1.135-.257-1.166-2.591.643-3.186a7.131,7.131,0,0,0,.441-3.366,6.5,6.5,0,0,1,.431-3.217" transform="translate(-3733.158 362.788)"/><path class="e" d="M3749.341-285.928c.162-.023.322-.053.479-.089a2.079,2.079,0,0,1,.563-1.89A2.248,2.248,0,0,0,3749.341-285.928Z" transform="translate(-3747.468 296.571)"/><path class="e" d="M3736.192-286.751a2.383,2.383,0,0,1,.548-2.1,2.161,2.161,0,0,0-1.027,1.808A.922.922,0,0,0,3736.192-286.751Z" transform="translate(-3735.417 297.41)"/></g><g transform="translate(3670.049 -559.095)"><path class="e" d="M3748.741-400.133s-.236,1.352.68,1.806a1.846,1.846,0,0,0,2.205-.177c.658-.789,1.633-2.42-1.007-4.008-1.631-.981-1.715,2.352-1.715,2.352Z" transform="translate(-3744.712 410.79)"/><path class="e" d="M3750.9-450.3c.345.746.655,1.324.669,1.375,0,0,2.133-2.641,1.735-3.078C3752.862-452.481,3751.229-450.88,3750.9-450.3Z" transform="translate(-3746.642 454.47)"/><path class="d" d="M3720.46-472.363c2.286,2.2-2.464,5.131-2.464,5.131a8.378,8.378,0,0,1,1.66,2.259c.49.817.68.681,1.28,1.361s-1.109,1.691-1.109,1.691-5.715-3.088-5.7-5.066a14.8,14.8,0,0,1,2.668-3.811C3717.472-471.483,3719.366-473.418,3720.46-472.363Z" transform="translate(-3714.131 472.671)"/><path class="d" d="M3749.121-396.388s-.427,2.1.83,2.717a2.92,2.92,0,0,0,1.537-.3s1.29-1.978.328-3S3749.121-396.388,3749.121-396.388Z" transform="translate(-3745.01 406.038)"/><path class="e" d="M3749.315-387.982s1.654.886,1.941.967a1.548,1.548,0,0,1-.845-.127s-.425.805.068,1.309c0,0-.76-.136-.487-1.4l-.69-.712Z" transform="translate(-3745.232 397.782)"/></g><g transform="translate(3674.416 -570.405)"><path class="d" d="M3762.232-565.247s.859-5.07,2.965-5.157c1.384-.057,2.08,1.707,2.08,1.707a4.42,4.42,0,0,1,2.392.71.93.93,0,0,1,1.046-.473c.66.224,1.37,1.694,1.109,4.111a2.1,2.1,0,0,1,1.507,1.034,1.115,1.115,0,0,1-.722.461c-.436.037-2.317-.648-2.828-.2a1.626,1.626,0,0,0-.673,1.607,4.981,4.981,0,0,1-3-1.383C3765.171-564.013,3764.387-566.305,3762.232-565.247Z" transform="translate(-3761.032 570.405)"/><path class="j" d="M3824.081-539.307s.517-1.7,1.51-2.178a18.428,18.428,0,0,0,.268,2.459A14.9,14.9,0,0,0,3824.081-539.307Z" transform="translate(-3815.724 544.831)"/><path class="j" d="M3779.3-552.816s1.279.612,2.123,3.267a18.338,18.338,0,0,0-2.9-.259A6.934,6.934,0,0,0,3779.3-552.816Z" transform="translate(-3775.435 554.851)"/><path class="e" d="M3785.5-542.647c.312,0,.565.348.565.778s-.253.778-.565.778-.565-.348-.565-.778.253-.778.565-.778" transform="translate(-3781.105 545.859)"/><path class="e" d="M3827.654-533.776a.532.532,0,0,0,.445-.589.532.532,0,0,0-.445-.589.347.347,0,0,0-.137.031,1.579,1.579,0,0,0-.305.515c0,.014,0,.028,0,.043A.533.533,0,0,0,3827.654-533.776Z" transform="translate(-3818.49 539.056)"/><path class="g" d="M3762.557-523.153a15.037,15.037,0,0,0,2.205-.177,1.921,1.921,0,0,0,1.8-2.164c-.092-1.315-1.828-1.893-3.1-.968-1.041-.231-2.2-.926-3.24.116a1.194,1.194,0,0,0-.316,1.446s-2.164-.349-2.913-1.452-1.715-2.577-2.776-2.681a1.8,1.8,0,0,0-2.042.925c-.544,1.062-.817,2.981,3.212,6.016s5.807,3.853,6.683,3.852c1.12,0,1.189-.418,2.477-.6.658-.092,1.157-1.211.436-2.178A13.057,13.057,0,0,0,3762.557-523.153Z" transform="translate(-3751.864 533.845)"/><path class="k" d="M3766.749-518.132s-.871-1.007-1.715-.191c-.7.676-.177,1.81-.177,1.81s.05-.979.5-.912c0,0,.381,2.436,3.947,4.873s4.56,2.219,5.336,2.015,1.661-.6,1.361-1.225a13.535,13.535,0,0,0-2.124-2.178,2.6,2.6,0,0,1-2.368.068,13.02,13.02,0,0,1-5.417-4.056s.072-.455.6-.2" transform="translate(-3763.188 524.632)"/><g transform="translate(7.097 9.689)"><path class="l" d="M3813.194-486.677l.077.038Z" transform="translate(-3813.194 486.677)"/></g><path class="m" d="M3786.395-490.009a2.929,2.929,0,0,1-2.141-.053,12.03,12.03,0,0,1-2.849-1.575,6.026,6.026,0,0,0-2.327.07,11.5,11.5,0,0,0,2.971,2.826c3.566,2.436,4.56,2.219,5.336,2.015a4.387,4.387,0,0,0,.788-.281A4.2,4.2,0,0,0,3786.395-490.009Z" transform="translate(-3775.928 500.822)"/><path class="h" d="M3831.921-499.578c.362-.117.641.372.164.585-.068.18.041.377.334.446a.573.573,0,0,1-.5-1.031" transform="translate(-3822.397 507.789)"/><path class="h" d="M3866.4-500.85c-.3-.1-.529.307-.135.483.055.148-.034.311-.276.368a.473.473,0,0,0,.41-.851" transform="translate(-3852.782 508.912)"/><path class="n" d="M3830.455-475.665c.581.171.988-1.11,1.1-1.506a2.539,2.539,0,0,1-1.461.153c.051.149.1.3.13.413C3830.319-476.251,3830.223-475.733,3830.455-475.665Z" transform="translate(-3821.041 487.96)"/><path class="n" d="M3860.714-482.46a2.869,2.869,0,0,1-.342.063c.058.11.112.217.151.3.151.334.141.86.38.889.589.073.788-1.205.838-1.639A3.5,3.5,0,0,1,3860.714-482.46Z" transform="translate(-3847.816 492.975)"/></g></g></g></svg>