<svg xmlns="http://www.w3.org/2000/svg" width="43" height="40" viewBox="0 0 43 40"><defs><style>.a,.f{fill:none;}.a{stroke:#2e578b;stroke-miterlimit:10;stroke-width:2px;}.b{fill:#ff8c4e;}.b,.d{stroke:#fff;stroke-width:0.5px;}.c{fill:#ff7c3b;}.d{fill:#cbdde9;}.e,.g{stroke:none;}.g{fill:#fff;}</style></defs><g transform="translate(-327 -727)"><g transform="translate(65 538)"><rect class="a" width="34" height="36" transform="translate(263 190)"/><line class="a" x2="34" transform="translate(263 202)"/><line class="a" x2="34" transform="translate(263 214)"/><line class="a" x2="8" transform="translate(284 220)"/><line class="a" x2="8" transform="translate(284 208)"/><line class="a" x2="8" transform="translate(284 196)"/><line class="a" x2="4" transform="translate(268 220)"/><line class="a" x2="4" transform="translate(268 208)"/><line class="a" x2="4" transform="translate(268 196)"/></g><g class="b" transform="translate(350 753)"><rect class="e" width="6" height="14"/><rect class="f" x="0.25" y="0.25" width="5.5" height="13.5"/></g><g class="c" transform="translate(356 750)"><path class="e" d="M 6.75 16.75 L 0.25 16.75 L 0.25 0.25 L 6.75 0.25 L 6.75 16.75 Z"/><path class="g" d="M 0.5 0.5 L 0.5 16.5 L 6.5 16.5 L 6.5 0.5 L 0.5 0.5 M 0 0 L 7 0 L 7 17 L 0 17 L 0 0 Z"/></g><g class="d" transform="translate(363 746)"><rect class="e" width="7" height="21"/><rect class="f" x="0.25" y="0.25" width="6.5" height="20.5"/></g></g></svg>