<svg xmlns="http://www.w3.org/2000/svg" width="438.6" height="346.372" viewBox="0 0 438.6 346.372"><defs><style>.a{fill:#172d55;}.b{fill:#223a74;}.c{fill:#3a6fb6;}.d{fill:#1b5faa;}.e{fill:#1e4382;}.f{fill:#f36e2c;}.g{fill:#a9a5a4;}.h{fill:#313a3f;}.i{fill:#d0cccb;}.j{fill:#1f2528;}.k{fill:#f3f3f3;}.l{fill:#e5e4e4;}.m{fill:#cb8b70;}.n{fill:#3d3937;}.o{fill:#b77a65;}.p{fill:#9e6757;}.q{fill:#342b26;}.r{fill:#2e2b28;}.s{fill:#b87356;}.t{fill:none;stroke:#2159a8;stroke-miterlimit:10;stroke-width:17px;}.u{fill:#2159a8;}</style></defs><g transform="translate(-1043.585 -141)"><g transform="translate(1135.937 259.197)"><g transform="translate(79.965)"><path class="a" d="M1031.067,550.054h54.2c3.154,0,4.3.7,4.433.89a6.577,6.577,0,0,1,0,3.658l-22.747,47.621h-8.335c-6.217-7.816-22.862-29.385-28.255-42.871-2.13-5.326-1.343-7.439-1.052-7.959a3.584,3.584,0,0,1,1.755-1.339m-1.031-8.106s-14.406,2.4-7.2,20.416,31.9,47.963,31.9,47.963h17.321l25.209-52.765s5.4-15.61-12.006-15.61Z" transform="translate(-1017.432 -454.883)"/><path class="b" d="M1112.977,611.1a10.208,10.208,0,0,0,7.152,12.536h0a10.208,10.208,0,0,0,12.537-7.154l26.277-96.122a10.208,10.208,0,0,0-7.151-12.534h0a10.207,10.207,0,0,0-12.537,7.152Z" transform="translate(-992.485 -464.255)"/><path class="c" d="M1183.151,564.157l23.412-72.635s7.8-18.011-13.806-18.011h-71.436s-12.6-1.8-21.012,26.413-16.21,66.634-16.21,66.634-1.2,15.007,13.207,15.007h64.833A26.074,26.074,0,0,0,1183.151,564.157Z" transform="translate(-1000.241 -473.488)"/><path class="c" d="M1028.965,573.575h132.667a10.81,10.81,0,0,1,10.81,10.81h0a10.811,10.811,0,0,1-10.81,10.81H1028.965a10.811,10.811,0,0,1-10.81-10.81h0a10.809,10.809,0,0,1,10.81-10.81Z" transform="translate(-1018.155 -446.289)"/><path class="b" d="M1037,630.1a9.1,9.1,0,0,1,4.128.989H1087.1a9.05,9.05,0,0,1,1.116-.472v-16.58a7.923,7.923,0,0,1-6.025-7.643v-9.92H1035.75a4.565,4.565,0,0,1-4.521-5.443h119.164a4.569,4.569,0,0,1-3.612,5.358h0a4.539,4.539,0,0,1-.91.084h-47.616v9.92a7.872,7.872,0,0,1-4.017,6.834v17.389a8.937,8.937,0,0,1,1.115.471h44.967a9.106,9.106,0,0,1,4.127-.991,8.893,8.893,0,1,1-9.038,8.891,8.759,8.759,0,0,1,.525-2.963h-36.2a8.694,8.694,0,0,1,.525,2.963,9.038,9.038,0,0,1-18.075,0,8.76,8.76,0,0,1,.525-2.963h-37.2a8.758,8.758,0,0,1,.524,2.963,9.038,9.038,0,1,1-9.186-8.89h.16Z" transform="translate(-1015.492 -441.543)"/><path class="b" d="M1094.316,550.053h54.2c3.154,0,4.3.7,4.432.89a6.6,6.6,0,0,1,0,3.657L1130.2,602.219h-8.335c-6.219-7.818-22.864-29.385-28.256-42.872-2.13-5.325-1.342-7.437-1.049-7.959a3.579,3.579,0,0,1,1.754-1.338m-1.026-8.1s-14.406,2.4-7.2,20.413,31.9,47.964,31.9,47.964h17.321l25.208-52.767s5.4-15.608-12.005-15.608Z" transform="translate(-1000.243 -454.884)"/></g><g transform="translate(0 22.629)"><g transform="translate(0 62.336)"><rect class="d" width="346.249" height="10.596" rx="3.123"/><rect class="d" width="12.159" height="135.578" transform="translate(9.165 7.633)"/><rect class="d" width="12.159" height="135.578" transform="translate(295.641 7.633)"/><rect class="e" width="12.159" height="132.615" transform="translate(33.481 10.596)"/><rect class="e" width="12.159" height="132.615" transform="translate(319.958 10.596)"/></g><g transform="translate(173.205 32.976)"><g transform="translate(0 0)"><rect class="f" width="29.828" height="22.597" transform="translate(9.76 29.828) rotate(-89.859)"/><g transform="translate(0 2.867)"><path class="f" d="M1141.379,522.62a7.712,7.712,0,0,1,7.685,7.722l-.008,3.013a7.714,7.714,0,0,1-7.723,7.685l-5.424-.013a7.714,7.714,0,0,1-7.685-7.723l.008-3.013a7.715,7.715,0,0,1,7.724-7.685l5.424.014m.008-3.143-5.423-.013a10.845,10.845,0,0,0-10.874,10.818v0l-.008,3.013a10.846,10.846,0,0,0,10.82,10.874l5.424.014a10.848,10.848,0,0,0,10.874-10.82h0l.009-3.013a10.846,10.846,0,0,0-10.819-10.872h0Z" transform="translate(-1125.083 -519.465)"/></g></g></g><g transform="translate(62.616 56.359)"><path class="c" d="M973.2,535.6h86.05a3.144,3.144,0,0,1,3.145,3.144h0a3.145,3.145,0,0,1-3.145,3.145H973.2a3.144,3.144,0,0,1-3.144-3.144h0A3.144,3.144,0,0,1,973.2,535.6Z" transform="translate(-970.061 -535.597)"/></g><path class="b" d="M956.076,547.522c0,3.328,2.162,6.028,4.815,6.028H1030.3c2.659,0,4.816-2.7,4.816-6.028V497.307c0-3.328-2.162-6.026-4.816-6.026H960.891c-2.66,0-4.815,2.7-4.815,6.026Z" transform="translate(-911.245 -491.281)"/></g><ellipse class="d" cx="5.746" cy="6.224" rx="5.746" ry="6.224" transform="translate(76.108 53.279) rotate(-34)"/></g><g transform="translate(1043.545 145)"><g transform="translate(0)"><g transform="translate(25.199 319.01)"><path class="g" d="M2824.748,756.33h37.838a2.811,2.811,0,0,0,2.811-2.811V741.85a2.811,2.811,0,0,0-2.811-2.811h-19.092a2.807,2.807,0,0,0-1.484.425l-18.747,11.669a2.811,2.811,0,0,0,1.485,5.2Z" transform="translate(-2821.938 -739.039)"/></g><g transform="translate(35.769 174.335)"><g transform="translate(0 0)"><rect class="h" width="71.956" height="24.447" rx="11.567" transform="translate(0 68.321) rotate(-71.71)"/></g></g><g transform="translate(38.157 232.225)"><path class="h" d="M2858.066,654.847l9.185,77.319a3.129,3.129,0,0,1-2.8,3.432h0l-17.372-1.087a3.131,3.131,0,0,1-3.432-2.8v0l-7.6-74.626a11.063,11.063,0,0,1,9.885-12.128h0A11.065,11.065,0,0,1,2858.066,654.847Z" transform="translate(-2835.993 -644.903)"/></g><g transform="translate(76.643 176.744)"><path class="h" d="M2907.314,599l-5.21,56.922c-.636,6.954-6.078,11.99-12.159,11.25l-2.293-.279c-6.077-.74-10.488-6.977-9.853-13.931l5.21-56.922c.636-6.954,6.078-11.99,12.159-11.25l2.293.278C2903.539,585.812,2907.951,592.05,2907.314,599Z" transform="translate(-2877.739 -584.722)"/></g><g transform="translate(61.991 325.068)"><path class="i" d="M2864.656,762.9h37.839a2.81,2.81,0,0,0,2.81-2.811V748.42a2.81,2.81,0,0,0-2.81-2.81H2883.4a2.812,2.812,0,0,0-1.485.424l-18.746,11.67a2.811,2.811,0,0,0,1.485,5.2Z" transform="translate(-2861.846 -745.61)"/></g><g transform="translate(77.882 238.423)"><path class="h" d="M2901.2,662.084l5.549,77.666a3.132,3.132,0,0,1-2.956,3.3h0l-17.3-1.9a3.131,3.131,0,0,1-3.3-2.954v0l-4.089-74.9a11.062,11.062,0,0,1,10.443-11.65h0a11.064,11.064,0,0,1,11.653,10.441Z" transform="translate(-2879.083 -651.626)"/></g><g transform="translate(96.055 253.743)"><path class="j" d="M2908.3,741.06l-4.887-72.817.97,68.972c-.07,3.721-2.549,5.3-5.586,6.384l6.533.746A3.132,3.132,0,0,0,2908.3,741.06Z" transform="translate(-2898.795 -668.243)"/></g><g transform="translate(59.849 247.264)"><path class="j" d="M2868.883,733.691l-8.571-72.476,4.465,68.833c.119,3.72-2.278,5.423-5.255,6.66l6.563.415a3.13,3.13,0,0,0,2.8-3.431Z" transform="translate(-2859.522 -661.215)"/></g><g transform="translate(42.973 82.964)"><path class="k" d="M2849.914,547.654h0a8.689,8.689,0,0,0,8.7-8.681h0V483h0a16.121,16.121,0,0,0-16.135,16.108l-1.254,39.593a8.688,8.688,0,0,0,8.417,8.952C2849.73,547.652,2849.822,547.654,2849.914,547.654Z" transform="translate(-2841.218 -482.997)"/></g><g transform="translate(31.883 129.685)"><path class="l" d="M2853.145,554.589a7.747,7.747,0,0,0-1.234-10.886c-.081-.065-.164-.127-.248-.189l-13.532-9.838a7.187,7.187,0,0,1-8.943,10.52l11.75,11.417a8.407,8.407,0,0,0,.844.712A8.3,8.3,0,0,0,2853.145,554.589Z" transform="translate(-2829.188 -533.676)"/></g><g transform="translate(28.387 126.47)"><g transform="translate(0 0)"><rect class="k" width="15.195" height="13.499" rx="6.387" transform="matrix(0.651, -0.759, 0.759, 0.651, 0, 11.534)"/></g></g><g transform="translate(13.559 114.967)"><path class="m" d="M2832.492,542.3a7.174,7.174,0,0,0,4-4.9,4.07,4.07,0,0,0-1.551-4.164l-19.75-14.786a3.691,3.691,0,0,0-5.011.545,3.76,3.76,0,0,0,.269,5.1l17.06,17.536a4.1,4.1,0,0,0,4.093,1.017A7.134,7.134,0,0,0,2832.492,542.3Z" transform="translate(-2809.311 -517.712)"/></g><g transform="translate(50.665 14.319)"><path class="n" d="M2857.913,408.538c5.274,0,9.55,5.187,9.55,11.586s-5.656,20.063-10.93,20.063-6.973-10.376-6.973-16.775S2852.638,408.538,2857.913,408.538Z" transform="translate(-2849.56 -408.538)"/></g><g transform="translate(55.205 164.227)"><rect class="h" width="51.833" height="33.654" rx="15.924"/></g><g transform="translate(56.606 164.232)"><path class="j" d="M2856,581.249l50.417,6.171a16.823,16.823,0,0,0-16.813-16.272h-18.178A16.826,16.826,0,0,0,2856,581.249Z" transform="translate(-2856.005 -571.149)"/></g><g transform="translate(52.153 78.324)"><path class="k" d="M2900.49,570.451h-42.954c-3.08,0-5.584-2.169-5.61-4.858l-.751-77.922a5,5,0,0,1,3.855-4.694l16.593-4.765a6.4,6.4,0,0,1,2.918-.139l27.114,5.02a5.109,5.109,0,0,1,4.447,4.793v77.665C2906.1,568.257,2903.587,570.451,2900.49,570.451Z" transform="translate(-2851.175 -477.965)"/></g><g transform="translate(69.14 64.742)"><rect class="m" width="14.577" height="22.015" rx="6.897"/></g><g transform="translate(69.14 65.907)"><path class="o" d="M2873.455,478.781a11.657,11.657,0,0,0,10.723-6.519V472c.405-9.478-3.264-7.289-7.289-7.289h0A7.288,7.288,0,0,0,2869.6,472v6.171A12.6,12.6,0,0,0,2873.455,478.781Z" transform="translate(-2869.6 -464.496)"/></g><g transform="translate(52.62 6.823)"><path class="m" d="M2903.7,428.9c-.672,15.739-15.017,38.9-32.7,38.85-17.782,0-20.729-14.327-18.8-27.311.109-25.746,1.908-38.5,26.485-39.986C2893.209,399.571,2904.444,411.472,2903.7,428.9Z" transform="translate(-2851.681 -400.407)"/></g><g transform="translate(63.1 57.807)"><path class="p" d="M2870.447,459.343a13.929,13.929,0,0,1-7.218-2,.374.374,0,1,1,.387-.64,13.288,13.288,0,0,0,15.006-.912.374.374,0,0,1,.462.588A13.992,13.992,0,0,1,2870.447,459.343Z" transform="translate(-2863.049 -455.71)"/></g><g transform="translate(76.314 56.83)"><path class="p" d="M2881.422,457.994a.372.372,0,0,1-.371-.34,2.494,2.494,0,0,0-.1-.5,2.476,2.476,0,0,0-3.088-1.647.373.373,0,1,1-.218-.714,3.221,3.221,0,0,1,4.147,2.8.374.374,0,0,1-.34.4Z" transform="translate(-2877.382 -454.65)"/></g><g transform="translate(55.134 6.804)"><path class="o" d="M2882.577,415.7a141.653,141.653,0,0,0,14.026-8.458,22.248,22.248,0,0,0-17.713-6.794c-16.27.986-21.968,8.357-24.481,16.079a16.114,16.114,0,0,0,6.9.733C2864.675,416.948,2879.322,416.76,2882.577,415.7Z" transform="translate(-2854.408 -400.387)"/></g><g transform="translate(60.78 39.497)"><ellipse class="q" cx="1.673" cy="1.673" rx="1.673" ry="1.673"/></g><g transform="translate(57.529 32.718)"><path class="n" d="M2857.066,431.159l.291.818a1.075,1.075,0,0,0,1.336.671,23.71,23.71,0,0,1,6.054-1.059,1.079,1.079,0,0,0,1.015-1.1l-.014-.928a1.089,1.089,0,0,0-1.111-1.068l-.049,0a26.972,26.972,0,0,0-6.816,1.267,1.091,1.091,0,0,0-.714,1.367Z" transform="translate(-2857.006 -428.495)"/></g><g transform="translate(74.703 31.703)"><path class="n" d="M2875.635,428.5l.015.863a1.074,1.074,0,0,0,1.052,1.062,23.752,23.752,0,0,1,6.075.931,1.078,1.078,0,0,0,1.313-.715l.287-.886a1.09,1.09,0,0,0-.715-1.366l-.044-.013a26.991,26.991,0,0,0-6.863-.978,1.091,1.091,0,0,0-1.118,1.062Z" transform="translate(-2875.635 -427.395)"/></g><g transform="translate(77.576 39.497)"><ellipse class="q" cx="1.673" cy="1.673" rx="1.673" ry="1.673"/></g><g transform="translate(99.862 83.664)"><path class="k" d="M2911.622,548.414h0a8.69,8.69,0,0,1-8.7-8.681h0V483.757h0a16.123,16.123,0,0,1,16.136,16.108l1.254,39.594a8.689,8.689,0,0,1-8.418,8.951C2911.806,548.412,2911.713,548.414,2911.622,548.414Z" transform="translate(-2902.925 -483.757)"/></g><g transform="translate(47.745)"><path class="n" d="M2900.3,406.845c.05.932-17.378,7.833-18.35,8.074-3.256.809-17.9-.126-21.271-.072a14.7,14.7,0,0,1-9.421-2.777c-2.974-2.4-4.232-6.149-4.754-9.772a4.361,4.361,0,0,1,.461-3.3c.7-.933,2.481-1.161,3.059-.162-.642-2.295,1.307-4.7,3.726-5.46a11.923,11.923,0,0,1,7.48.61,74.173,74.173,0,0,0,7.109,2.643c5.081,1.258,10.512-.006,15.714.718C2891.9,398.443,2895.649,399.462,2900.3,406.845Z" transform="translate(-2846.393 -393.006)"/></g><g transform="translate(94.061 46.855)"><path class="n" d="M2896.632,443.83" transform="translate(-2896.632 -443.83)"/></g><g transform="translate(95.656 26.543)"><path class="n" d="M2898.363,442.178a3.072,3.072,0,0,0,2.11,2.983,8.954,8.954,0,0,0,1.735.453c.3.015.8.338,1.083.244a39.278,39.278,0,0,0,4.053-15.288,35.423,35.423,0,0,0-.443-7.424c-.862-1.206-2.275-1.711-4.472-1.068-2.76.81-3.421,4.2-3.775,6.66Z" transform="translate(-2898.362 -421.797)"/></g><g transform="translate(95.402 42.519)"><g transform="translate(0 0)"><rect class="m" width="11.448" height="7.339" rx="3.408" transform="translate(0 10.673) rotate(-68.787)"/></g></g><g transform="translate(87.119 13.406)"><path class="n" d="M2897.385,427.186h0a5.575,5.575,0,0,0,2.767,1.357,7.207,7.207,0,0,0,3.388.034c2.008-.632,1.273,9.911,2.03,7.947.732-1.947,3.394-16.083,3.272-18.159a14.636,14.636,0,0,0-1.653-7.25,6.783,6.783,0,0,0-6.177-3.544,1.508,1.508,0,0,0-1.352.783c-.108.3-6.92,2.321-7.887,3.1-1.543,1.233-2.922,3.181-2.632,5.269.366,2.652,2.485,2.719,4.3,4.032C2895.736,422.406,2895.492,425.3,2897.385,427.186Z" transform="translate(-2889.102 -407.547)"/></g><g transform="translate(47.747 6.976)"><path class="r" d="M2860.679,413.089a14.693,14.693,0,0,1-9.421-2.777c-2.965-2.389-4.225-6.127-4.75-9.739a6.092,6.092,0,0,0,0,2.316c.522,3.623,1.78,7.376,4.754,9.772a14.7,14.7,0,0,0,9.421,2.777c3.188-.053,16.463.782,20.642.187C2875.784,415.429,2863.557,413.042,2860.679,413.089Z" transform="translate(-2846.395 -400.573)"/></g><g transform="translate(101.812 106.829)"><path class="l" d="M2905.426,542.082a.385.385,0,0,1-.385-.385V509.269a.385.385,0,1,1,.771,0V541.7A.385.385,0,0,1,2905.426,542.082Z" transform="translate(-2905.04 -508.884)"/></g><g transform="translate(52.361 106.829)"><path class="l" d="M2851.785,542.082a.385.385,0,0,1-.385-.385V509.269a.385.385,0,0,1,.771,0V541.7A.385.385,0,0,1,2851.785,542.082Z" transform="translate(-2851.4 -508.884)"/></g><g transform="translate(84.912 137.331)"><g transform="translate(14.835)"><path class="l" d="M2914.234,542.1a7.747,7.747,0,0,0-9.036,6.193c-.019.1-.036.2-.051.308l-2.347,16.565a7.348,7.348,0,0,1,.6-.925,7.187,7.187,0,0,1,12.884,3.893l4.577-15.731a8.534,8.534,0,0,0,.233-1.078A8.3,8.3,0,0,0,2914.234,542.1Z" transform="translate(-2902.8 -541.97)"/></g><g transform="translate(13.19 13.783)"><g transform="translate(0 0)"><rect class="k" width="13.5" height="15.196" rx="6.387" transform="translate(0 13.173) rotate(-77.362)"/></g></g><g transform="translate(12.466 20.704)"><path class="m" d="M2913.238,565.9a7.175,7.175,0,0,0-6.207-1.233,4.071,4.071,0,0,0-2.952,3.321l-3.8,24.378a3.691,3.691,0,0,0,2.831,4.17,3.758,3.758,0,0,0,4.378-2.628l7.49-23.287a4.1,4.1,0,0,0-1.021-4.094A7.389,7.389,0,0,0,2913.238,565.9Z" transform="translate(-2900.23 -564.427)"/></g><g transform="translate(0 47.59)"><g transform="translate(0 8.209)"><path class="m" d="M2894.429,602.692c.892.864-.038,3.269-2.076,5.371s-4.6,3.269-5.3,2.243c-1.237-1.817,1.141-2.143,3.178-4.245S2893.537,601.83,2894.429,602.692Z" transform="translate(-2886.708 -602.496)"/></g><g transform="translate(3.434)"><path class="m" d="M2904.857,594c2.629,1.715,3.829,6.483-2.331,12.761-4.492,4.577-7.72,8.408-10.351,6.693s-2.363-6.752,1.374-11.965C2897.377,596.152,2902.226,592.288,2904.857,594Z" transform="translate(-2890.433 -593.591)"/></g><g transform="translate(2.901 9.331)"><path class="m" d="M2891.8,605.082a16.623,16.623,0,0,0-1.937,6.486c-.179,4.365,1.591,8.992,4.778,7.418a2.036,2.036,0,0,0,3.274-.4c1.251.424,2.41-.251,3.2-1.909,1.586.487,2.567-1.907,1.257-3.1-1.518-1.383-.308-5.506,1.82-8.083C2907.3,601.745,2891.8,605.082,2891.8,605.082Z" transform="translate(-2889.854 -603.713)"/></g></g></g><g transform="matrix(0.985, 0.174, -0.174, 0.985, 3.616, 98.993)"><g transform="translate(8.292 5.478)"><g transform="translate(0 0)"><path class="m" d="M2.414,8.1c1.4-1.628,1.4-3.057-.371-3.913C2.108,3.728,2.935.371,2.886,0c.056,0,1.172,3.016,1.227,3.011a5.977,5.977,0,0,0,.9,1.971c1.1,1.6,2.7,2.4,3.559,1.807.378-.262.339-.608.081-1.05a12.405,12.405,0,0,1,1.2,1.828c1.18,2.235,1.311,4.456-.29,5.849a10.635,10.635,0,0,1-6.6,1.929A9.023,9.023,0,0,1,0,14.794Z" transform="translate(0 0)"/></g></g><g transform="translate(12.405 6.664)"><g transform="translate(0 0)"><path class="m" d="M4.462,5.6C3.6,6.2,2,5.392.9,3.8A5.977,5.977,0,0,1,0,1.825,2.591,2.591,0,0,0,1.368,1.3,1,1,0,0,0,1.786,0,24.563,24.563,0,0,0,2.913,2.371c.617.9,1.3,1.617,1.63,2.182C4.8,4.995,4.84,5.342,4.462,5.6Z"/></g></g><g transform="translate(7.428 0)"><g transform="translate(0 0)"><path class="m" d="M6.281,8.173a2.593,2.593,0,0,1-1.418.363c-.055,0-.112,0-.168-.008A2.738,2.738,0,0,0,2.885,5.969,5.826,5.826,0,0,0,.691,5.5C-.388,3.184-.233.584,1.367.086S3.313,1.34,4.67,3.573c.863,1.422,1.926,2.5,2.174,3.353A1,1,0,0,1,6.281,8.173Z"/></g></g><g transform="translate(0 5.546)"><g transform="translate(0 0)"><path class="m" d="M11.759,3.959c1.817.879,2.024,2.552.585,4.225a2.539,2.539,0,0,1,.419.8c.372,1.212-.313,2.6-2.02,3.937.52.732.061,1.175-.841,1.463a29.641,29.641,0,0,1-4.976.655A1.537,1.537,0,0,1,4.409,15C.959,14.174-2.462,2.161,2.459.8a18.948,18.948,0,0,1,5.2-.8,6.315,6.315,0,0,1,2.41.447A2.956,2.956,0,0,1,11.759,3.959Z"/></g></g><g transform="translate(6.86 5.478)"><g transform="translate(0 0)"><ellipse class="s" cx="2.429" cy="2.395" rx="2.429" ry="2.395"/></g><g transform="translate(1.552 2.969)"><g transform="translate(0 0)"><ellipse class="s" cx="2.429" cy="2.395" rx="2.429" ry="2.395"/></g></g><g transform="translate(1.586 6.14)"><ellipse class="s" cx="2.429" cy="2.749" rx="2.429" ry="2.749"/></g><g transform="translate(0.641 10.593)"><g transform="translate(0 0)"><ellipse class="s" cx="2.429" cy="1.889" rx="2.429" ry="1.889"/></g></g></g><g transform="translate(6.14 5.388)"><g transform="translate(0 0)"><g transform="translate(0 0)"><ellipse class="m" cx="2.429" cy="2.395" rx="2.429" ry="2.395"/></g></g><g transform="translate(1.552 2.969)"><g transform="translate(0 0)"><ellipse class="m" cx="2.429" cy="2.395" rx="2.429" ry="2.395"/></g></g><g transform="translate(1.586 6.14)"><g transform="translate(0 0)"><ellipse class="m" cx="2.429" cy="2.749" rx="2.429" ry="2.749" transform="translate(0 0)"/></g></g><g transform="translate(0.641 10.593)"><g transform="translate(0 0)"><ellipse class="m" cx="2.429" cy="1.889" rx="2.429" ry="1.889"/></g></g></g></g></g><g transform="translate(63.951 40.535)"><path class="p" d="M2866.679,447.626a3.22,3.22,0,0,1-1.923-.849,2.775,2.775,0,0,1-.784-1.582,1.5,1.5,0,0,1,.38-1.211c.217-.325,1.054-.829,1.474-1.465,1.481-2.245,2.12-4.175,2.892-5.329a.486.486,0,1,1,.807.541c-1.355,2.023-2.087,4.109-2.888,5.322-.421.639-1.259,1.143-1.491,1.492-.218.292-.21.239-.206.577a1.8,1.8,0,0,0,.511.975c.618.648,2.436.935,5.136.135a.486.486,0,1,1,.276.931A10.23,10.23,0,0,1,2866.679,447.626Z" transform="translate(-2863.971 -436.974)"/></g></g><g transform="translate(43.059 -199.341)"><rect class="e" width="119" height="76.706" transform="translate(1203.941 340.341)"/><rect class="c" width="105.914" height="62.612" transform="translate(1209.952 346.962)"/><path class="t" d="M1209.952,369.784h25.484V346.962"/><path class="t" d="M1209.952,394.946h42.717V346.962"/><circle class="e" cx="14.922" cy="14.922" r="14.922" transform="translate(1273.149 351.644)"/><path class="u" d="M1288.071,381.486l-27.186,28.088h54.372Z"/></g></g></svg>